<svg xmlns="http://www.w3.org/2000/svg" version="1.0" viewBox="0 0 1444 1204"><g fill="#FFF" stroke-width="0"><path d="M361 602v301h722V301H361v301zm407.1-234.7c17.1 4.6 27.2 9 40.9 17.8 9.6 6.2 14.2 10.9 17.6 18.3 2.3 5 2.7 7.4 2.8 14.5 0 11-3.2 18.8-10.6 25.7-6.7 6.3-12.5 8.7-22.5 9.2-9.7.5-11.9-.1-23.8-7.3-13.7-8.3-22.3-10.7-37-10.8-20 0-32.4 5.1-46 18.9-8.6 8.7-12.8 15.4-16.6 26.9-2.2 6.7-2.3 8.3-2.3 39.5-.1 36.1.2 38.4 6.2 51 4.8 10 17.5 23 27.7 28.2 11 5.7 17.4 7.2 30 7.2 16-.1 26.3-3.3 40.9-12.9 2.8-1.9 7.9-4.2 11.4-5.1 15.1-4.2 32.5 4.3 40 19.6 2.3 4.8 2.7 6.7 2.7 14.6-.1 8.2-.4 9.7-3.3 15.7-3.7 7.4-9.1 12.3-22.1 19.9-24 14.1-49.8 19.8-80 17.7-20-1.4-34.7-5.4-51.1-14-12.9-6.8-21.5-13.3-34.1-26-17.4-17.5-28.9-37.2-34.5-58.9-3.8-14.7-4.4-22.1-4.4-56.5 0-34.5.7-43 4.4-56.5 6.3-23.4 16.5-41.1 33.9-58.9 20.3-20.7 43.3-33.6 70.2-39.2 7.5-1.5 12.4-1.8 29.5-1.5 18.2.3 21.6.7 30.1 2.9zM465.1 704c3 .6 8.3 2.4 11.8 4.1 6.7 3.1 15.1 9.3 15.1 11 0 1.3-10 11.9-11.2 11.9-.5 0-2.9-1.4-5.4-3-2.4-1.7-6.3-3.8-8.6-4.6-5.5-2-16-2.2-21.8-.6-10 2.9-21 13.7-24 23.5-1.8 6.2-1.4 16.6 1 23 2.3 6.1 9 14.3 14.6 17.7 4.4 2.8 12.6 5 18.6 5 6.5 0 16.3-3.3 21-7.1l4-3.2 6.4 6.4 6.5 6.4-2.8 2.3c-14.7 12.3-33.5 16.3-51.1 10.7-8.8-2.8-20-10-25.1-16.2-4.2-5-9.6-15.7-11.1-21.8-1.8-7.7-1.4-20.9.9-28.6 4.2-13.5 15.4-26.3 28.4-32.5 11-5.2 21.3-6.6 32.8-4.4zm51.9 18.5V740l3.8-2.3c5.9-3.8 10.7-4.9 18.5-4.5 9.2.4 15.7 3.6 21.4 10.6 7.2 8.8 8.3 14.3 8.3 41.3V808h-18v-21.8c0-20.6-.1-22-2.2-26.2-3.2-6.3-7.7-9-14.8-9-7.1 0-11.6 2.7-14.7 9-2.2 4.2-2.3 5.6-2.3 26.2V808h-18V705h18v17.5zm208 0V740l6.3-3.1c17.9-9.2 40.4-1.6 49.2 16.6 10.8 22-.5 49.1-23 55.1-8.9 2.4-23.9 1.2-25.1-2.1-.3-.6.8-4.2 2.4-8l2.9-7 6 .3c14 .8 24.8-10.1 22.9-23.1-1.4-9.1-9-16.5-17.8-17.4-6.7-.7-11.8.8-16.4 5-6.6 5.7-6.8 6.9-7.2 30.4l-.4 21.3H707V705h18v17.5zm303.8 34.2.2 51.3h-18.9l-.3-22.4c-.3-25.1-.2-24.6-8.2-31-3.1-2.6-4.7-3.1-10.4-3.4-8.4-.4-14.3 2.3-18.7 8.6-2.7 3.9-3 5.2-3 11.6 0 6.4.4 7.8 2.9 11.4 4.2 6.2 11.8 9.6 19.6 8.9l5.9-.5 2.6 6.7c1.5 3.6 2.9 7.1 3.2 7.7.2.7-1.7 1.9-4.8 2.9-7.5 2.5-18.9 1.7-26.3-1.9-30-14.7-28.1-59.9 3.1-71.6 4.8-1.8 7.3-2.1 14.3-1.8 7.9.4 10.3 1.1 19.3 5.6.4.2.7-7 .7-16.1 0-9 .3-16.7.7-17.1.4-.4 4.6-.5 9.3-.4l8.5.3.3 51.2zM679 729.4v13.5l5.2.3 5.2.3 2.2 8.7 2.2 8.8H679v12.3c0 15.7.2 16 10.6 16.7l7.8.5 2.2 8.7 2.2 8.8h-10.9c-7 0-12.1-.5-14.3-1.4-4.6-1.9-10.4-7.2-12.9-12-2.1-4-2.2-5-2.2-39.5v-35.4l7-1.8c11.5-2.8 10.5-3.8 10.5 11.5zm-50.2 7.2 6.2 3.1v-2.4c0-2.2.2-2.3 9-2.3h9v73h-18v-19.3c0-20.1-.5-23.9-4.1-29.2-4.2-6-8.3-8-16.8-8-6.7 0-8.1.3-11.7 2.8-2.2 1.5-5 4.5-6.2 6.6-8.5 15.1 2.4 31.9 20.1 30.9l6-.3 2.9 6.9c1.5 3.8 2.8 7.2 2.8 7.6 0 2.9-15.9 4.9-24.1 3-30.1-7.1-39-48.5-14.6-68.1 7.3-5.9 14-8 24.2-7.7 7.8.3 10 .7 15.3 3.4zm216.5-.4c8 3.8 16.8 12.8 19.8 20.5 3.5 8.8 3.3 21.7-.4 29.6-7.4 16.1-21.6 24.7-38.4 23.4-35.6-2.7-48.8-48.3-20-69.4 7.7-5.7 13.6-7.4 24.2-7.1 7.3.3 10.1.8 14.8 3zm79.1-1.2c9.9 3.8 17.3 13.3 19.5 25.5.6 3.2 1.1 15.2 1.1 26.6v20.8l-8.9.3-9 .3-.3-23c-.3-25.7-.8-27.6-7.8-32.2-4.6-3.2-13.4-3.2-18-.1-7.4 5.1-7.5 5.3-7.8 31.4l-.3 23.4H875v-73h9c9 0 9 0 9 2.6v2.5l2.9-2.1c7.8-5.5 18.7-6.6 28.5-3z"/><path d="M820.5 752.4c-4.9 2.1-10.1 8.7-11.4 14.4-3.8 17.8 13.8 30.9 30 22.4 10-5.2 13.6-17.4 8.2-27.8-1.1-2.1-3.9-5.2-6.2-6.9-3.5-2.4-5.3-3-10.9-3.2-3.9-.1-8 .3-9.7 1.1z"/></g><path fill="#99C" d="M600.4 520c0 14.6.2 20.5.3 13.2.2-7.2.2-19.2 0-26.5-.1-7.2-.3-1.3-.3 13.3z"/><path fill="#369" d="M669.4 521c0 12.9.2 18.2.3 11.7.2-6.4.2-17 0-23.5-.1-6.4-.3-1.1-.3 11.8z"/><path fill="#036" d="M716 365.5c-11 1.7-16.9 3.1-25.5 6.2-38.6 14.1-69.3 45.2-82.8 83.8-6 17.3-6.2 19.5-6.2 64.5 0 44.1 0 44.7 5.3 62 4.4 14.5 11.1 27.7 19.8 39 4.9 6.3 9.9 12 10.6 12 .3 0 .8-5.3 1.1-11.8 1-19.7 5.7-36.8 14.6-53.1 4.4-7.9 12-18.9 14.5-21 1.4-1.2 1.6-4.5 1.6-24 0-25.1.9-35.6 3.9-44.7 5.9-18.4 22.8-35.2 42.1-42 6.6-2.3 19.1-3.4 27.9-2.4 11.6 1.3 19 4.1 33.6 12.8 9.1 5.4 16.5 7 24.3 5.2 17.2-4 28.1-16.9 28.2-33.2 0-13-5.1-22.1-17.5-31-26.1-18.6-62.7-27.2-95.5-22.3zm68.7 224c-2.6.9-8.2 3.8-12.4 6.5-4.1 2.8-8 5-8.6 5-.6 0-.8 4.4-.4 12.7.6 14.5 3.4 25.8 9.2 37.6 3.9 8 9.4 16.7 10.4 16.7 2.2 0 25.5-12.7 31.4-17 11.1-8.3 15.4-17.6 14.5-31.9-.9-16.7-14.9-29.9-32.2-30.8-4.5-.2-8.9.3-11.9 1.2z"/><path fill="#69C" d="M638.3 626.5c0 4.4.2 6.1.4 3.7.2-2.3.2-5.9 0-8-.2-2-.4-.1-.4 4.3z"/><path fill="#69F" d="M664.7 551.9C648 574.2 639 600.7 639 627.5v8.3l6.8 6.2c16.1 14.7 36.4 25.4 57.7 30.4l5.1 1.2-1.8-5.3c-3.3-9.6-4.9-19.6-4.9-30.8-.1-12 .2-14.8 3.3-27.4 1.6-6.2 1.8-8.6.9-8.9-3.5-1.2-13.7-9.1-19.2-15-9.8-10.3-15.9-23.6-17.1-37.2l-.3-3.5-4.8 6.4z"/><path fill="#FCC" d="M503.3 705.7c2.6.2 6.8.2 9.5 0 2.6-.2.4-.3-4.8-.3s-7.4.1-4.7.3zm208 0c2.6.2 6.8.2 9.5 0 2.6-.2.4-.3-4.8-.3s-7.4.1-4.7.3zm304 0c2.6.2 6.7.2 9 0s.2-.3-4.8-.3c-4.9 0-6.8.1-4.2.3zm13.1 30.3c0 7.4.1 10.5.3 6.7.2-3.7.2-9.7 0-13.5-.2-3.7-.3-.6-.3 6.8zM680 743.6c3.5.7 9.8.9 9.4.2-.3-.5-2.9-.7-5.7-.7-2.9.1-4.5.3-3.7.5zm348.3 17.4c0 4.7.2 6.6.4 4.2.2-2.3.2-6.1 0-8.5-.2-2.3-.4-.4-.4 4.3zm-83.9 15.5c0 6.6.1 9.2.3 5.7.2-3.4.2-8.8 0-12-.2-3.1-.3-.3-.3 6.3zm-257.9 14.1c4.7.7 11.3.8 10.8.1-.2-.4-3.2-.6-6.6-.6-3.4.1-5.3.3-4.2.5zm257.8 11.9c0 3.3.2 4.5.4 2.7.2-1.8.2-4.5 0-6s-.4 0-.4 3.3z"/><path fill="#F66" d="M706.1 609.8c-3.1 11.7-4.2 24.3-3.1 35.8.9 9.5 4.9 25.7 6.7 27.5 1.8 1.8 18.1 3.2 32.3 2.6 11.8-.4 16.7-1.1 26.5-3.6 6.5-1.8 12.1-3.3 12.3-3.5.2-.2-2-4.4-4.8-9.2-8.8-15.5-12.9-29.1-13.7-46.2-.5-9.9-.8-11.2-2.2-10.6-.9.4-4.7 1.6-8.6 2.6-9.5 2.6-29.2 2.1-37.7-1l-5.6-2-2.1 7.6zm-263.2 95.3c-9.9 2.3-21.5 9.6-28.4 17.9-5.8 6.9-10.3 17.3-11.7 26.8-1.1 7.2-1 9.5.5 16.5 4.1 19.8 16 33.3 35.6 40.4 9.3 3.4 22.9 3.4 32.2 0 7-2.5 13.6-6.1 18.2-9.9l2.8-2.3-6-5.9-6.1-6-2.2 2.1c-3.6 3.3-9.9 6-16.6 7.3-16.3 2.9-31.8-5.4-39-20.8-2.3-4.9-2.7-7-2.7-14.7 0-7.6.4-9.9 2.6-14.5 9.6-20.5 35.1-27.4 53.8-14.5l4.8 3.3 5.7-5.7 5.8-5.8-4.1-3.5c-5.6-4.7-12.6-8.4-19.6-10.3-6.3-1.6-19.7-1.9-25.6-.4zM500 757v51h16v-19.8c.1-21.4.8-27.1 3.7-31 3.9-5.3 7-6.7 14.2-6.7 5.9 0 7.2.4 10.5 2.9 6.5 4.9 7 7.3 7.4 32.3l.4 22.3H568v-23.3c0-26-.7-30-6.3-38.3-6.7-10.2-20.5-15.3-31.8-12-3.1.8-7.2 2.7-9.3 4.1-2 1.4-3.9 2.5-4.1 2.5-.3 0-.5-7.9-.5-17.5V706h-16v51zm208 0v51h15.8l.4-20.8c.4-23.3.9-25.4 7.8-31.6 8.2-7.3 19.8-7.3 28 0 5 4.5 7.1 9.3 7.1 15.9 0 12.8-11.3 22.8-24.1 21.1l-4.8-.6-2.8 7.1c-3.2 8.1-3.1 8.2 5.1 9.9 6.6 1.3 16.2-.1 23-3.5 7.2-3.5 13.2-9.7 16.9-17.5 2.8-5.9 3.1-7.4 3.1-16.5s-.3-10.6-3.1-16.5c-7.3-15.3-21.7-23-38.8-20.8-3.6.5-8.1 2-11.3 3.8-2.9 1.7-5.5 3-5.8 3-.3 0-.5-7.9-.5-17.5V706h-16v51zm303-33.5V741l-5.4-3c-18.1-10.2-41.5-2.4-50.4 16.8-3.7 8.1-4.3 21.3-1.3 29.3 6.1 16.1 18.2 25 34.2 25 6.2 0 14.9-1.7 14.9-3 0-.2-1.2-3.6-2.7-7.3l-2.8-6.9-4.7.7c-5.2.6-12.8-1.4-16.5-4.5-3.3-2.8-7.3-9.1-7.3-11.7 0-1.2-.4-2.5-.9-2.8-1.2-.8 1.4-10.1 4-14.2 3.1-5.1 8.7-8.4 15.1-9.1 6.8-.7 11.8.9 16.5 5 6.6 5.8 7.3 8.6 7.3 31.9V808h17V706h-17v17.5zm-340.7-5.1-8.3 1.8v34.2c0 32.1.2 34.4 2.1 38.6 4.7 10.5 11 14.1 26.2 14.8 10.4.5 10.9.4 10.4-1.4-.4-1-1.4-4.9-2.3-8.7l-1.6-6.7h-6.7c-10.8 0-11.1-.4-11.1-16.6V761h7.1c6.2 0 7-.2 6.5-1.8-.5-1.8-2-7.8-3-12.5-.6-2.5-1-2.7-5.6-2.7h-4.9l-.3-13.8-.3-13.7-8.2 1.9zM605.2 734c-11 2.3-22.3 11.6-26.4 21.8-3.3 8.2-3.3 23.5 0 30.7 4.9 10.7 12 17.5 22.2 21 7.5 2.6 26 1.5 26-1.5 0-.6-1.2-4-2.6-7.6l-2.7-6.6-4.4.7c-9.3 1.4-20.2-4.7-23.3-13-1.6-4.1-1.4-12.5.3-16.6 4.9-11.8 21.3-16.6 31.6-9.2 8.6 6.2 10.1 11.7 10.1 37.5V808h16v-73h-8c-7.7 0-8 .1-8 2.3 0 1.3-.2 2.6-.5 2.9-.3.2-3.5-1.1-7.2-2.9-7.5-3.7-15.7-4.8-23.1-3.3zm215.8.3c-10 2.3-17.8 7.6-23.3 16-10.2 15.3-8.3 34.9 4.6 47.8 18.5 18.5 49.6 13.1 61.3-10.6 2.6-5.4 2.9-7 2.9-16 0-8.7-.3-10.7-2.6-15.5-3.3-7-8-12.5-14.4-16.5-8.7-5.6-18.8-7.4-28.5-5.2zm19.9 19.2c6.2 4.2 9.5 10.3 9.5 17.9-.1 9.9-5.5 17.3-15.1 20.3-4.5 1.4-6 1.5-10.8.4-19.9-4.5-22.6-31.4-4-40.3 5.8-2.7 14.7-2 20.4 1.7zm63.3-18.6c-3 1-6.7 2.8-8.2 4-3.8 2.7-4 2.7-4-.9v-3h-16v73h16v-20.8c0-22.3.6-26.4 4.7-31.3 7-8.3 21.1-7.6 27.5 1.3 2.2 3.2 2.3 4 2.6 27l.3 23.8H944v-22.9c0-25.7-.9-30.7-6.9-39.5-7-10.1-21.5-14.8-32.9-10.7z"/><path fill="#F96" d="M516.4 723.5c0 9.9.2 13.8.3 8.7.2-5.1.2-13.2 0-18-.1-4.8-.3-.6-.3 9.3zm208 0c0 9.9.2 13.8.3 8.7.2-5.1.2-13.2 0-18-.1-4.8-.3-.6-.3 9.3zm151.1 48c0 20.3.1 28.5.2 18.2.2-10.4.2-27 0-37-.1-10-.2-1.6-.2 18.8zm-359.1 16c0 11.5.2 16.1.3 10.2.2-5.9.2-15.4 0-21-.1-5.6-.3-.8-.3 10.8zm35 0c0 11.5.2 16.1.3 10.2.2-5.9.2-15.4 0-21-.1-5.6-.3-.8-.3 10.8zm173 2c0 10.4.2 14.6.3 9.2.2-5.4.2-13.9 0-19-.1-5.1-.3-.7-.3 9.8zm-89 .5c0 10.2.2 14.3.3 9.2.2-5 .2-13.4 0-18.5-.1-5-.3-.9-.3 9.3zM486 788.5c3 3 5.7 5.5 5.9 5.5.3 0-1.9-2.5-4.9-5.5-3-3-5.7-5.5-5.9-5.5-.3 0 1.9 2.5 4.9 5.5z"/><path fill="#FC9" d="M661.4 752.5c0 18.1.2 25.7.3 16.8.2-8.9.2-23.7 0-33-.1-9.2-.3-2-.3 16.2zm-8.9 19c0 20.3.1 28.5.2 18.2.2-10.4.2-27 0-37-.1-10-.2-1.6-.2 18.8z"/><path fill="#F99" d="M499.5 757c0 28.3.1 39.9.2 25.8.2-14.2.2-37.4 0-51.5-.1-14.2-.2-2.6-.2 25.7zm208 0c0 28.3.1 39.9.2 25.8.2-14.2.2-37.4 0-51.5-.1-14.2-.2-2.6-.2 25.7zm184.9 30c0 11.8.2 16.7.3 10.7.2-5.9.2-15.5 0-21.5-.1-5.9-.3-1-.3 10.8zm-324 .5c0 11.5.2 16.1.3 10.2.2-5.9.2-15.4 0-21-.1-5.6-.3-.8-.3 10.8z"/><path fill="#FFC" d="M1010.4 723c0 9.6.2 13.6.3 8.7.2-4.8.2-12.6 0-17.5-.1-4.8-.3-.8-.3 8.8zm18-8.5c0 4.9.1 7.1.3 4.8.2-2.3.2-6.4 0-9-.2-2.6-.3-.8-.3 4.2zm0 74c0 11 .2 15.6.3 10.3.2-5.3.2-14.3 0-20-.1-5.7-.3-1.3-.3 9.7zm-18 6c0 7.7.2 10.7.3 6.7.2-4 .2-10.3 0-14-.2-3.7-.3-.4-.3 7.3z"/></svg>